# xmcd
#
# Track frame offsets: 
#        150
#        11586
#        46374
#        76282
#        99492
#        140940
#        162461
#        183672
#        198627
#        221002
#
# Disc length: 3198 seconds
#
# Revision: 1
# Processed by: cddbd v1.5.2PL0 Copyright (c) Steve Scherf et al.
# Submitted via: ExactAudioCopy v0.95b4
#
DISCID=930c7c0a
DTITLE=Junk Box - Fragment
DYEAR=2005
DGENRE=Jazz
TTITLE0=A Dream in the Dawn
TTITLE1=Ants are Crossing the Highway
TTITLE2=Getting Lost on Snowy Day
TTITLE3=An Intersection, On a Rainy Day
TTITLE4=Looking Out of the Window
TTITLE5=Your Neighbors
TTITLE6=Wok Cooking
TTITLE7=Tin Can Godzilla
TTITLE8=Cats' Nap
TTITLE9=Lullaby
EXTD=YEAR: 2005
EXTT0=
EXTT1=
EXTT2=
EXTT3=
EXTT4=
EXTT5=
EXTT6=
EXTT7=
EXTT8=
EXTT9=
PLAYORDER=
